<svg xmlns="http://www.w3.org/2000/svg" viewBox="0 0 1177.03 235.9"><defs><style>.cls-1{fill:#e3051a;}.cls-2{fill:#242424;}</style></defs><title>Ресурс 1</title><g id="Слой_2" data-name="Слой 2"><g id="Слой_1-2" data-name="Слой 1"><g id="Слой_2-2" data-name="Слой 2"><g id="Слой_1-2-2" data-name="Слой 1-2"><g id="SvgjsG397382"><g id="surface1"><path class="cls-1" d="M219.72,0a8,8,0,1,0,0,16.08h18.79c.22.53,2.89,6.81,3.39,8H231.39a50.39,50.39,0,0,0-25.82,7.15l-28.25,17H68.19A7.87,7.87,0,0,0,67,48.11a6.71,6.71,0,0,0-1.1.09H43a8,8,0,1,0,0,16.07H62.8L75.34,83.09a8.21,8.21,0,0,0,4,3.11L128.62,104a8,8,0,0,0,3.86.38l14.72-2.07-14.31,23.4-13.74,5.53c-.79-1.1-1.57-2.2-2.42-3.23l2.2-1.82a67.08,67.08,0,0,0-14.09-12.87l-1.6,2.35a62.63,62.63,0,0,0-7.94-4.58l1.29-2.6a68.92,68.92,0,0,0-18.2-5.87l-.48,2.85a60.87,60.87,0,0,0-9.13-.91l.07-2.88a67.9,67.9,0,0,0-18.93,2.23l.73,2.79A62.66,62.66,0,0,0,42,109.58l-1.13-2.64a67.27,67.27,0,0,0-16.38,9.92l1.85,2.22a72.07,72.07,0,0,0-6.62,6.34l-2.17-1.94A67.33,67.33,0,0,0,6.81,139.23l2.6,1.32A66.32,66.32,0,0,0,6,149l-2.73-.88A68.09,68.09,0,0,0,0,166.94l2.89.09c0,.57-.07,1.1-.07,1.67a64.5,64.5,0,0,0,.47,7.49l-2.85.32a68.86,68.86,0,0,0,1.79,9.35,69.67,69.67,0,0,0,3.1,9.1L8,193.83A62,62,0,0,0,12.24,202l-2.51,1.5a66.44,66.44,0,0,0,12.11,14.77l2-2.19A66.62,66.62,0,0,0,31,221.79l-1.63,2.38a66.13,66.13,0,0,0,17.13,8.38l.88-2.73A66.54,66.54,0,0,0,56.29,232l-.5,2.85a67.46,67.46,0,0,0,19.14.51l-.37-2.86a61.17,61.17,0,0,0,9-1.76l.72,2.83a66.63,66.63,0,0,0,17.58-7.5l-1.51-2.51a56.23,56.23,0,0,0,7.53-5.28l1.82,2.26a67.12,67.12,0,0,0,12.87-14.15l-2.39-1.57a63.14,63.14,0,0,0,4.55-8l2.64,1.26A67.75,67.75,0,0,0,133.24,180l-2.86-.5a53.91,53.91,0,0,0,.72-6.21L154.61,169l38,15.19a7.54,7.54,0,0,0,3,.59h8a32.23,32.23,0,0,0,32.13-32.13V108.89c5.53-2.55,18.3-9.73,30.5-27.27,5.37,12.55,10.33,24.13,15.19,35.46a66.22,66.22,0,0,0-8,7.62l2.23,2a69.63,69.63,0,0,0-5.52,7.28l-2.42-1.54a66.51,66.51,0,0,0-8,17.35l2.76.79a64.31,64.31,0,0,0-1.91,9l-2.89-.44a67.23,67.23,0,0,0,0,19.11l2.88-.43a65.8,65.8,0,0,0,1.92,9l-2.76.81a67.58,67.58,0,0,0,7.9,17.36l2.48-1.57a63.73,63.73,0,0,0,5.46,7.31l-2.19,2a66.5,66.5,0,0,0,14.43,12.55l1.57-2.48a68.27,68.27,0,0,0,8,4.39l-1.19,2.64a66.47,66.47,0,0,0,18.3,5.4l.44-2.89A60.25,60.25,0,0,0,324,233v2.86a66.4,66.4,0,0,0,19-2.81l-.82-2.76a63.22,63.22,0,0,0,8.6-3.24l1.22,2.64a67,67,0,0,0,8.32-4.55,65.69,65.69,0,0,0,7.72-5.77l-1.92-2.2a62.73,62.73,0,0,0,6.47-6.47l2.23,1.92a66.13,66.13,0,0,0,10.32-16.1l-2.64-1.16a64.2,64.2,0,0,0,3.27-8.6l2.73.82a67.44,67.44,0,0,0,2.7-18.89h-2.8a63.62,63.62,0,0,0-.72-9.14l2.86-.4a67.47,67.47,0,0,0-5.4-18.33l-2.64,1.22a58.06,58.06,0,0,0-4.39-8l2.45-1.6A68.77,68.77,0,0,0,368.08,118l-1.92,2.22a63.69,63.69,0,0,0-7.34-5.52l1.57-2.45a68,68,0,0,0-17.38-7.9l-.79,2.73a65,65,0,0,0-8.94-1.92l.41-2.85a67.23,67.23,0,0,0-19.11,0l.41,2.85a65.8,65.8,0,0,0-9,1.92l-.82-2.73a66.42,66.42,0,0,0-10,4C290.41,97.18,285.68,86.14,280.5,74c-.38-.85-.35-.81-.69-1.66h44.34a8,8,0,0,0,0-16.07H273c-10.2-24-21.75-51.33-21.75-51.33a8.08,8.08,0,0,0-7.4-4.9Zm11.67,40.17h17.32c3,7.09,5.59,13.18,10.14,23.88-12.62,23.25-29.22,30.87-32.48,32.22-14.69-.53-27.55-8.85-31.88-12a7.94,7.94,0,0,0-8-3.89l-23.82,3.38a11.86,11.86,0,0,0-1.57.22l-28.9,4.17L87.27,72l-5.15-7.68h97.43a8.38,8.38,0,0,0,4.14-1.13L213.82,45A34.41,34.41,0,0,1,231.39,40.17ZM179.55,97.62v29.15l-25.35-5.08,13.65-22.4ZM195.62,104a73.52,73.52,0,0,0,24.1,7.85v40.79a15.94,15.94,0,0,1-15.81,16.07h-6.75l-38.73-15.47a7.6,7.6,0,0,0-4.42-.47l-21.15,3.85c-.28-1.69-.5-3.38-.94-5.05a73.7,73.7,0,0,0-2.45-7.21l18.7-7.47L186,144.44a8.09,8.09,0,0,0,6.65-1.66,8,8,0,0,0,3-6.22ZM67.09,120.5a48.18,48.18,0,0,1,36.65,16.85L65.21,152.76a16,16,0,1,0,1.13,32h1.25A16.79,16.79,0,0,0,71.8,184l42.86-7.81A48.18,48.18,0,1,1,67.09,120.5Zm257.06,0a48.18,48.18,0,1,1-34.8,14.84c4.3,10,8.31,19.36,9.76,22.22a34.13,34.13,0,0,0,9,11.14,16.07,16.07,0,1,0,16.07-16.07h0a16.35,16.35,0,0,0-7.57,1.88,15.92,15.92,0,0,1-3.1-4.14c-.75-1.51-5.43-12.14-10.89-24.76A47.9,47.9,0,0,1,324.15,120.5ZM112,151.34a46.56,46.56,0,0,1,2.42,8.6l-31.57,5.74a20.16,20.16,0,0,0-.69-2.38Z"/></g></g><g id="SvgjsG397381"><path id="SvgjsPath397379" class="cls-2" d="M496.84,38.76H485.2l-.5,19.29H496l19.29-.5,1.83,2.33-2,24.28-21.45-.5H484v2.16l1.33,34.93H451.94l1.66-31.6-1.66-76h71.84l1.83,2.33-2.16,24.28Zm109.76,82H575.34L573.51,109l-12.64-.33-10,.5L549,120.76H519l26.4-85.33h37.25ZM556.21,86.49l6.49.16,6.48-.16-4.82-23.78h-1.83ZM712.37,35.43l7,85.32H691.59L691.42,95l-1-14.63h-1.66l-12.31,33.09H653l-9.48-33.09h-1.83L640.37,92l-1,28.77H613.09l8.48-85.32h36.59l2.16,12,5.32,25.28h1.83l6.15-24,3-13.31Zm56.38-1.66A79,79,0,0,1,795,38.26h0l-4.49,25.61L786.21,65a59.92,59.92,0,0,0-12-6.16q-6.26-2.33-9.74-2.33h0c-2.33,0-3.49.72-3.49,2.17h0a3.94,3.94,0,0,0,2.42,3.49,68.4,68.4,0,0,0,8,3.49h0A91.68,91.68,0,0,1,784,71.09a26.62,26.62,0,0,1,8.82,8q3.72,5.22,3.72,13.38h0a29.32,29.32,0,0,1-3.89,14.8q-3.92,6.81-12.57,11.14t-22,4.32h0a101.74,101.74,0,0,1-30.1-4.65h0l4.49-26.78,2.82-2.16a63,63,0,0,0,14.14,8.48Q757.12,101,762.1,101h0c2.67,0,4-.88,4-2.66h0a3.64,3.64,0,0,0-2.23-3.23A71.16,71.16,0,0,0,756,91.68h0a88.38,88.38,0,0,1-12.64-5.48,26.84,26.84,0,0,1-9-8.25q-3.82-5.39-3.83-13.7h0A27.88,27.88,0,0,1,735,48.67a30.26,30.26,0,0,1,13.14-10.91q8.64-4,20.62-4Zm127.89,1.66,1.67,2.16-1.67,22.46-18.79-1h-.5l-.67,33.76,1.17,27.94H847.08L848.58,96l-.67-36.92h-.66l-19,1-1.83-2.16,1.66-22.46Zm49.56-1.66q20,0,30.86,11t10.88,31.1h0q0,22.29-12,34.52t-34,12.21h0q-20,0-30.84-11.22t-11-31.54h0q0-22,12.07-34t34-12Zm-2.83,24.45q-4.65,0-6.89,1.23t-3.18,4.92a51.72,51.72,0,0,0-.9,11.31h0a86.07,86.07,0,0,0,1,15.47c.66,3.32,1.82,5.6,3.49,6.81s4.27,1.83,7.82,1.83h0q4.81,0,7.08-1.23c1.48-.84,2.51-2.45,3.06-4.83a54.18,54.18,0,0,0,.83-11.23h0a95.15,95.15,0,0,0-.93-15.64q-.9-5-3.46-6.81T943.37,58.22Zm134.88-22.79-1,43.24-.17,14q-.16,14.49-10.64,22.22t-29.94,7.72h0q-18.78,0-28.6-7.72t-9.31-22.22h0l.33-13.8-.83-43.41h30.76l-1.32,53.05q-.18,5.34,2.16,7.56c1.55,1.51,4.26,2.26,8.15,2.26h0c3.88,0,6.62-.75,8.24-2.26s2.34-4,2.23-7.56h0l-1.33-53Zm79.49,52.22q12,17,19.29,25.95h0l-.49,3.32a141.92,141.92,0,0,1-30.11,5.49h0l-4.15-3.16q-7-15.14-10.15-22.12h-8.31l1.16,23.62h-30.93L1095.54,96l-1.49-60.54h45.57q15.45,0,23.94,6.89t8.49,19.89h0a27.59,27.59,0,0,1-3.74,13.87,37,37,0,0,1-10.57,11.57Zm-29.27-31.1-3.65.34-.67,18,9.14.66a11.29,11.29,0,0,0,4.76-4,11.85,11.85,0,0,0,1.4-6.15h0q0-4.5-2.5-6.49c-1.67-1.33-4.49-2.11-8.48-2.33Z"/><path id="SvgjsPath397380" class="cls-2" d="M546.24,157.87l-.33,36.68.17,16.63H539.5l.26-16.06-.26-32H525.69l-.49,4.73A243.31,243.31,0,0,1,522,193.1q-1.82,9.1-4.63,13.43a12.44,12.44,0,0,1-7.27,5.56h0l-2.07.26L506.74,207a12,12,0,0,0,6.27-5.4q2.29-3.9,3.8-12a229.71,229.71,0,0,0,2.66-22.95h0l.83-8.65-.09-.17Zm13.31,15,1.23,4.92L569.93,204h.59L580,178.3l1.23-5.23h5.92l-13.64,36.75a36.66,36.66,0,0,1-4.47,8.91,17.63,17.63,0,0,1-5.72,5.11,36,36,0,0,1-8.87,3.21h-.57a13.42,13.42,0,0,1-2.75-3.92h0l.17-.74a26.7,26.7,0,0,0,9.69-3.54,21.13,21.13,0,0,0,6.27-7.7h0l-14-37.91Zm60.11.26-.34,21.36.24,16.72H613.1l.24-16.13v-.4h-.5a24.9,24.9,0,0,1-8.89,4.49h0q-6.65,0-9.62-2.59t-3-8.48h0l-.16-15h6.48l-.16,13.47c-.07,2.44.43,4.24,1.47,5.39a6.32,6.32,0,0,0,4.92,1.76h0q4.92,0,9.48-4.08h0l-.17-16.54Zm58.11,0-.24,21.36.17,16.72H632.56l.23-16.13-.23-22h6.06l-.34,21.36.17,11.9h13.71l.26-11.31-.26-22h6.08L658,194.46l.08,11.9h13.73l.14-11.31-.14-22Zm12.83,38.08.33-16.13-.33-21.78L697,173l-.17,28.84h.5l17.23-28.67H721l-.26,21.29.26,16.79h-6.41l.26-15.73v-13.4h-.5l-17.46,29.1Zm70.25-19.38-23.85.09v.17q0,7,3.16,10.71t9,3.76h0a18.87,18.87,0,0,0,5.82-.95,19.79,19.79,0,0,0,5.32-2.71h0l.67.5-1,5.6a26.3,26.3,0,0,1-11.64,2.83h0q-8.16,0-12.81-5.21t-4.65-14.25h0q0-9.15,4.65-14.56t12.54-5.4h0q6.66,0,10.32,3.78c2.44,2.54,3.66,6,3.66,10.53h0a26,26,0,0,1-.34,4.23h0ZM748,177.09a9.57,9.57,0,0,0-6.93,2.71,13.83,13.83,0,0,0-3.71,7.6h0l18.39-.33.17-1.17q0-4.25-2-6.53a7.46,7.46,0,0,0-5.87-2.28Zm36.52,34.09,4.16-38.08h6.49l2.06,5.82,7.58,20.46h.5l8.22-20.72,2-5.56H822l3.66,38.08h-5.32l-.83-12L817.89,182h-.5l-10.21,24.88h-4.75L793,182h-.41l-1.82,16.14-1.1,13.06Zm66.86-38.75q7.73,0,12,5t4.31,14.16h0q0,9.69-4.49,14.94t-12.81,5.28h0q-7.82,0-12.12-5T834,192.65h0q0-9.66,4.53-14.94t12.86-5.28Zm-.43,4.66a9.47,9.47,0,0,0-8,3.59q-2.73,3.57-2.74,10.45h0q0,8,2.69,12a9,9,0,0,0,7.86,4h0c3.51,0,6.16-1.17,8-3.5s2.75-5.81,2.75-10.45h0q0-7.91-2.71-12a8.89,8.89,0,0,0-7.86-4.06Zm49.06-4,.5.4-.5,4.42-7-.16h-4.66l-.17,16.7.26,16.72H882l.23-16.13-.16-17.29h-4.65l-7.07.16-.42-.59.42-4.23Zm20-.67q7.74,0,12,5t4.27,14.16h0q0,9.69-4.48,14.94T919,211.85h0q-7.82,0-12.09-5t-4.28-14.16h0q0-9.66,4.51-14.94T920,172.43Zm-.41,4.66q-5.25,0-8,3.59t-2.76,10.45h0q0,8,2.71,12a9,9,0,0,0,7.87,4h0c3.48,0,6.15-1.16,8-3.5s2.76-5.81,2.73-10.45h0q0-7.9-2.7-12a8.88,8.88,0,0,0-7.85-4.06Zm63.53-4,.5.4-.5,4.42-7-.16h-4.66l-.17,16.7.24,16.72h-6.48l.26-16.13-.17-17.29h-4.66l-7.08.16-.4-.59.4-4.23Zm7.22-.26,1.27,4.92,9.14,26.27h.57l9.48-25.7,1.26-5.23H1018l-13.63,36.75a36.59,36.59,0,0,1-4.45,8.91,17.61,17.61,0,0,1-5.75,5.11,35.19,35.19,0,0,1-8.84,3.21h-.59a13.54,13.54,0,0,1-2.73-3.92h0l.16-.74a26.6,26.6,0,0,0,9.67-3.54,21.5,21.5,0,0,0,6.3-7.7h0l-14-37.91Zm52.56-.17q7.15,0,11,4.75t3.83,13.55h0q0,10-4.82,15.44t-13.74,5.44h0a37.32,37.32,0,0,1-7.22-.74h0l.17,15.47h-6.49l.41-31.53-.41-21.55,6.32-.57-.07,5.4h.57a34.72,34.72,0,0,1,5.25-3.66,23.83,23.83,0,0,1,5.23-2ZM1040,207a10.13,10.13,0,0,0,8.48-3.83q3-3.81,3-10.9h0q0-6.9-2.38-10.55a7.62,7.62,0,0,0-6.77-3.66h0a10.5,10.5,0,0,0-5.13,1.4,23.65,23.65,0,0,0-5.35,4.42h0l-.09,10.55.09,10.4A17.26,17.26,0,0,0,1040,207Zm64.6-34.1-.17,21.53.17,16.72h-6.49l.34-16.13-.24-21.55Zm-23.19,15.47c3.77,0,6.63.87,8.6,2.61s3,4.28,3,7.6h0q0,6-4.07,9.29t-11.4,3.28H1067l.34-16.13-.24-22h6.39l-.17,15.3ZM1079.49,207a8.31,8.31,0,0,0,5.38-2.37,7.64,7.64,0,0,0,1.78-5.3h0a7,7,0,0,0-1.78-5.11,6.75,6.75,0,0,0-5.21-1.68h0l-6.39.07v1.9l.17,12.33Z"/></g></g></g></g></g></svg>